<svg xmlns="http://www.w3.org/2000/svg" viewBox="0 0 200 200">
  <!-- Fundo preto -->
  <circle cx="100" cy="100" r="100" fill="#000"/>
  <!-- Anel branco -->
  <circle cx="100" cy="100" r="92" fill="none" stroke="#fff" stroke-width="9"/>

  <!-- Cruz -->
  <rect x="91" y="18" width="18" height="80" rx="2" fill="#fff"/>
  <rect x="62" y="38" width="76" height="18" rx="2" fill="#fff"/>

  <!-- Bíblia - página esquerda superior -->
  <path d="M100 95 C85 88 55 88 28 98 C35 108 70 110 100 108 Z" fill="#fff"/>
  <!-- Bíblia - página esquerda inferior -->
  <path d="M100 108 C70 110 35 108 28 98 C30 118 65 125 100 122 Z" fill="#fff"/>

  <!-- Bíblia - página direita superior -->
  <path d="M100 95 C115 88 145 88 172 98 C165 108 130 110 100 108 Z" fill="#fff"/>
  <!-- Bíblia - página direita inferior -->
  <path d="M100 108 C130 110 165 108 172 98 C170 118 135 125 100 122 Z" fill="#fff"/>

  <!-- Lombada central (esconde a junção) -->
  <path d="M96 93 C94 105 94 115 96 122 C98 126 102 126 104 122 C106 115 106 105 104 93 Z" fill="#000"/>

  <!-- Linhas de páginas esquerda -->
  <path d="M40 101 Q70 97 96 99" fill="none" stroke="#000" stroke-width="2.5" stroke-linecap="round"/>
  <path d="M36 109 Q68 105 96 108" fill="none" stroke="#000" stroke-width="2.5" stroke-linecap="round"/>
  <path d="M38 117 Q70 114 96 116" fill="none" stroke="#000" stroke-width="2.5" stroke-linecap="round"/>

  <!-- Linhas de páginas direita -->
  <path d="M160 101 Q130 97 104 99" fill="none" stroke="#000" stroke-width="2.5" stroke-linecap="round"/>
  <path d="M164 109 Q132 105 104 108" fill="none" stroke="#000" stroke-width="2.5" stroke-linecap="round"/>
  <path d="M162 117 Q130 114 104 116" fill="none" stroke="#000" stroke-width="2.5" stroke-linecap="round"/>

  <!-- Cauda esquerda inferior -->
  <path d="M96 122 C80 130 50 140 28 158 C42 154 72 140 98 130 Z" fill="#fff"/>
  <!-- Cauda direita inferior -->
  <path d="M104 122 C120 130 150 140 172 158 C158 154 128 140 102 130 Z" fill="#fff"/>
</svg>
