<?xml version="1.0" encoding="UTF-8"?>
<svg xmlns="http://www.w3.org/2000/svg" viewBox="0 0 100 100" width="100" height="100">
  <!-- Fundo preto -->
  <circle cx="50" cy="50" r="50" fill="#000"/>
  <!-- Anel branco -->
  <circle cx="50" cy="50" r="45" fill="none" stroke="#fff" stroke-width="5.5"/>

  <!-- Cruz branca: haste vertical -->
  <rect x="45.5" y="9" width="9" height="46" rx="1.5" fill="#fff"/>
  <!-- Cruz branca: haste horizontal -->
  <rect x="31" y="22" width="38" height="9" rx="1.5" fill="#fff"/>

  <!-- Bíblia aberta -->
  <!-- Página esquerda -->
  <path d="M49 55
           C42 53 28 52 14 59
           C11 68 13 78 19 85
           C30 82 42 82 49 90
           Z"
        fill="#fff"/>
  <!-- Linhas da página esquerda -->
  <path d="M47 58 C38 57 25 56 15 61" fill="none" stroke="#000" stroke-width="1.8" stroke-linecap="round"/>
  <path d="M46 63 C37 62 25 62 16 66" fill="none" stroke="#000" stroke-width="1.5" stroke-linecap="round"/>
  <path d="M45 68 C37 67 26 68 18 72" fill="none" stroke="#000" stroke-width="1.3" stroke-linecap="round"/>

  <!-- Página direita -->
  <path d="M51 55
           C58 53 72 52 86 59
           C89 68 87 78 81 85
           C70 82 58 82 51 90
           Z"
        fill="#fff"/>
  <!-- Linhas da página direita -->
  <path d="M53 58 C62 57 75 56 85 61" fill="none" stroke="#000" stroke-width="1.8" stroke-linecap="round"/>
  <path d="M54 63 C63 62 75 62 84 66" fill="none" stroke="#000" stroke-width="1.5" stroke-linecap="round"/>
  <path d="M55 68 C63 67 74 68 82 72" fill="none" stroke="#000" stroke-width="1.3" stroke-linecap="round"/>

  <!-- Canto inferior esquerdo (página virada) -->
  <path d="M19 85 C12 90 12 96 17 97 C28 94 40 91 49 90"
        fill="none" stroke="#fff" stroke-width="2.5" stroke-linecap="round"/>
  <!-- Canto inferior direito (página virada) -->
  <path d="M81 85 C88 90 88 96 83 97 C72 94 60 91 51 90"
        fill="none" stroke="#fff" stroke-width="2.5" stroke-linecap="round"/>

  <!-- Lombada central -->
  <path d="M49 55 Q50 72 49 90 M51 55 Q50 72 51 90"
        fill="none" stroke="#000" stroke-width="1" stroke-linecap="round"/>
</svg>
